<svg width="24" height="24" viewBox="0 0 24 24" fill="none" xmlns="http://www.w3.org/2000/svg">
<path fill-rule="evenodd" clip-rule="evenodd" d="M12.5986 7.62309C11.9596 8.82947 10.9744 10.2481 9.64293 11.8789C9.61612 11.5036 9.60271 11.1171 9.60271 10.7195C9.60271 9.46841 9.75016 8.20841 10.0451 6.93947C10.2953 5.8716 10.6594 4.91319 11.1375 4.06426C11.4726 3.48787 11.8948 3.06564 12.4042 2.79755C12.6008 2.69479 12.7862 2.6434 12.9605 2.6434C13.0186 2.6434 13.1191 2.65681 13.2621 2.68362C13.4051 2.71043 13.5413 2.89362 13.6709 3.23319C13.7424 3.42532 13.7781 3.65989 13.7781 3.93692C13.7781 4.90202 13.3849 6.13075 12.5986 7.62309ZM9.2542 14.667C9.70548 15.8019 10.3824 16.3694 11.2849 16.3694C11.8301 16.3694 12.3908 16.1214 12.9672 15.6254C13.5316 15.1406 14.1506 14.349 14.8242 13.2507C14.7969 13.7318 14.7833 14.1905 14.7833 14.6269C14.7833 14.7564 14.8302 14.8681 14.924 14.962C15.0134 15.0558 15.1229 15.1027 15.2524 15.1027C15.382 15.1027 15.4915 15.0558 15.5808 14.962C15.6747 14.8681 15.7216 14.7564 15.7216 14.6269C15.7216 14.046 15.7484 13.4093 15.802 12.7167C15.8244 12.7033 15.8422 12.6877 15.8556 12.6698C16.4722 11.9549 17.0218 11.5975 17.5044 11.5975C17.7412 11.5975 17.9891 11.698 18.2483 11.8991C18.5074 12.1001 18.7018 12.3839 18.8314 12.7503C18.9073 12.9737 18.9498 13.2105 18.9587 13.4607H18.885C18.4114 13.4607 17.94 13.5456 17.4708 13.7154C17.0017 13.8851 16.5482 14.2471 16.1103 14.8011C15.8422 15.1854 15.7082 15.5383 15.7082 15.86C15.7082 16.2041 15.8266 16.49 16.0634 16.7179C16.3315 16.9771 16.7046 17.1066 17.1827 17.1066C18.3801 17.1066 19.2424 16.2063 19.7697 14.4057C19.8099 14.2716 19.8389 14.1398 19.8568 14.0103L20.1852 14.017C20.4533 14.017 20.7437 13.9991 21.0565 13.9633C21.3737 13.9231 21.6977 13.8047 22.0283 13.6081C22.3634 13.4071 22.6739 13.0831 22.9599 12.6363C22.9867 12.5916 23.0001 12.5447 23.0001 12.4956C23.0001 12.4017 22.9577 12.328 22.8728 12.2744C22.8281 12.2476 22.7812 12.2342 22.732 12.2342C22.6382 12.2342 22.5645 12.2766 22.5108 12.3615C22.1623 12.8888 21.7647 13.2172 21.3179 13.3467C20.9694 13.445 20.6052 13.4942 20.2254 13.4942C20.1182 13.4942 20.0087 13.4897 19.897 13.4808C19.8925 13.1144 19.8322 12.7681 19.7161 12.442C19.3631 11.4634 18.7577 10.9742 17.8998 10.9742C17.243 10.9742 16.6063 11.2423 15.9897 11.7784C17.5535 10.1208 18.7219 8.6977 19.4949 7.50919C20.2723 6.32068 20.7527 5.3511 20.9358 4.60047C21.0118 4.29217 21.0498 4.01291 21.0498 3.7627C21.0498 3.40525 20.947 3.06568 20.7415 2.74398C20.5404 2.41781 20.2031 2.22344 19.7295 2.16089C19.6446 2.14749 19.5597 2.14078 19.4748 2.14078C18.8671 2.14078 18.2907 2.41334 17.7456 2.95844C16.9012 3.83866 16.2131 5.36004 15.6814 7.52259C15.382 8.73344 15.1564 9.96664 15.0045 11.2222C14.9632 11.5732 14.9278 11.9149 14.8981 12.2471C14.8312 12.2617 14.7751 12.3021 14.7298 12.3682C13.9479 13.7399 13.2442 14.6938 12.6187 15.23C12.1629 15.6277 11.7697 15.8265 11.4391 15.8265C11.3989 15.8265 11.2827 15.8131 11.0906 15.7863C10.8985 15.7595 10.6929 15.5673 10.474 15.2099C10.2551 14.8524 10.0853 14.4347 9.96463 13.9566C9.84846 13.4785 9.7658 13.0317 9.71665 12.6162C11.2001 10.8379 12.2925 9.29192 12.994 7.9783C13.6999 6.66021 14.1155 5.57223 14.2406 4.71436C14.2853 4.43734 14.3076 4.18266 14.3076 3.95032C14.3076 3.60181 14.2607 3.30468 14.1669 3.05894C13.8943 2.35298 13.3738 2 12.6053 2C12.4668 2 12.2568 2.02904 11.9753 2.08713C11.6938 2.14074 11.3944 2.315 11.0772 2.60989C10.8002 2.86904 10.5477 3.19745 10.3198 3.59511C9.80601 4.51106 9.41282 5.54096 9.14027 6.68479C8.82303 8.02968 8.66442 9.38575 8.66442 10.753C8.66442 11.2731 8.6876 11.7685 8.73397 12.2391C8.66732 12.2527 8.61071 12.2934 8.56415 12.3615C7.885 13.4472 7.23713 14.2381 6.62053 14.734C6.34351 14.9351 6.1 15.0356 5.89 15.0356C5.82298 15.0356 5.71351 15.011 5.5616 14.9619C5.40968 14.9083 5.27117 14.7385 5.14606 14.4525C5.00755 14.1442 4.9383 13.7823 4.9383 13.3668C4.9383 12.7993 5.07457 12.0688 5.34713 11.1752C5.36053 11.1305 5.36723 11.0858 5.36723 11.0411C5.36723 10.9652 5.34266 10.8825 5.29351 10.7932C5.24436 10.6993 5.15723 10.6323 5.03213 10.5921C4.98298 10.5787 4.93606 10.572 4.89138 10.572C4.67245 10.572 4.52277 10.6815 4.44234 10.9004C4.14745 11.8789 4 12.6988 4 13.3601C4 14.0169 4.14745 14.5531 4.44234 14.9686C4.71043 15.3529 5.06117 15.5763 5.49457 15.6388C5.55266 15.6477 5.61298 15.6522 5.67553 15.6522C6.06426 15.6522 6.48426 15.4869 6.93553 15.1563C7.55132 14.6628 8.18014 13.9218 8.82198 12.9334C8.92017 13.5603 9.06424 14.1382 9.2542 14.667ZM15.8824 11.879L15.9159 11.8455C15.8936 11.8589 15.8824 11.87 15.8824 11.879ZM20.5337 3.69568C20.5337 5.29525 19.0168 7.73706 15.983 11.0211C16.1259 9.90855 16.3292 8.8161 16.5929 7.74376C16.8163 6.83674 17.0799 6.02132 17.3837 5.29749C17.9422 3.97046 18.6504 3.17961 19.5083 2.92493C19.6289 2.88919 19.7406 2.87132 19.8434 2.87132C20.0579 2.87132 20.2321 2.94951 20.3662 3.10589C20.4779 3.231 20.5337 3.42759 20.5337 3.69568ZM18.3555 15.3641C17.8819 16.1549 17.4172 16.5504 16.9615 16.5504C16.7559 16.5504 16.5817 16.4811 16.4387 16.3426C16.3002 16.2086 16.2309 16.0477 16.2309 15.86C16.2309 15.6456 16.3315 15.3998 16.5325 15.1228C16.8855 14.6715 17.2631 14.3699 17.6652 14.218C18.0673 14.0661 18.4806 13.9901 18.9051 13.9901C18.7711 14.5308 18.5879 14.9888 18.3555 15.3641ZM5.09915 10.0224C5.08574 10.0224 5.07234 10.018 5.05894 10.009C4.7283 9.69179 4.56298 9.36562 4.56298 9.03051C4.56298 8.87859 4.59872 8.76689 4.67021 8.6954C4.71936 8.64179 4.77745 8.61498 4.84447 8.61498C4.98745 8.61498 5.12596 8.74679 5.26 9.0104C5.40298 8.83168 5.53926 8.74232 5.66883 8.74232C5.76266 8.74232 5.83192 8.78253 5.8766 8.86296C5.91234 8.92104 5.93021 8.9903 5.93021 9.07072C5.93021 9.24051 5.85426 9.41923 5.70234 9.60689C5.57723 9.75881 5.38511 9.89508 5.12596 10.0157L5.09915 10.0224ZM15.1574 20.2893C15.2589 20.2381 15.2997 20.1143 15.2486 20.0127C15.1974 19.9112 15.0736 19.8704 14.972 19.9216C12.8069 21.0129 10.496 20.9673 8.43203 19.9217C8.3306 19.8704 8.20671 19.9109 8.15532 20.0124C8.10394 20.1138 8.14451 20.2377 8.24595 20.2891C10.4244 21.3927 12.8732 21.4406 15.1574 20.2893ZM8.59269 17.7181C8.48711 17.6758 8.36729 17.7272 8.32506 17.8328C8.18447 18.1842 7.91775 18.336 7.67269 18.336C7.42763 18.336 7.1609 18.1842 7.02031 17.8328C6.97808 17.7272 6.85826 17.6758 6.75269 17.7181C6.64711 17.7603 6.59576 17.8801 6.63799 17.9857C6.83481 18.4778 7.24292 18.7478 7.67269 18.7478C8.10246 18.7478 8.51056 18.4778 8.70739 17.9857C8.74962 17.8801 8.69827 17.7603 8.59269 17.7181ZM16.3834 17.8328C16.4256 17.7272 16.5454 17.6758 16.651 17.7181C16.7566 17.7603 16.8079 17.8801 16.7657 17.9857C16.5689 18.4778 16.1608 18.7478 15.731 18.7478C15.3012 18.7478 14.8931 18.4778 14.6963 17.9857C14.6541 17.8801 14.7054 17.7603 14.811 17.7181C14.9166 17.6758 15.0364 17.7272 15.0786 17.8328C15.2192 18.1842 15.4859 18.336 15.731 18.336C15.976 18.336 16.2428 18.1842 16.3834 17.8328Z" fill="black"/>
</svg>
