<svg width="85" height="85" viewBox="0 0 85 85" fill="none" xmlns="http://www.w3.org/2000/svg">
<path d="M23.3387 46.608C23.1575 46.608 22.9827 46.595 22.8144 46.5691C21.5587 46.3879 20.5425 45.7406 19.7658 44.6273C18.9114 43.4234 18.4842 41.87 18.4842 39.967C18.4842 38.0511 18.9114 35.6757 19.7658 32.8406C19.9988 32.2063 20.4325 31.8892 21.0668 31.8892C21.1962 31.8892 21.3322 31.9086 21.4746 31.9474C21.837 32.0639 22.0895 32.2581 22.2319 32.53C22.3743 32.7889 22.4455 33.0283 22.4455 33.2484C22.4455 33.3779 22.4261 33.5073 22.3872 33.6368C21.5976 36.2258 21.2027 38.3424 21.2027 39.9864C21.2027 41.1904 21.4034 42.2389 21.8047 43.1322C22.1671 43.9607 22.5684 44.4526 23.0086 44.6079C23.4487 44.7503 23.7659 44.8215 23.9601 44.8215C24.5685 44.8215 25.274 44.5302 26.0766 43.9477C27.8631 42.5108 29.7401 40.2195 31.7078 37.0738C31.8761 36.8278 32.0897 36.7048 32.3486 36.7048C32.491 36.7048 32.6269 36.7436 32.7564 36.8213C33.0024 36.9896 33.1253 37.2097 33.1253 37.4815C33.1253 37.6239 33.08 37.7599 32.9894 37.8893C30.9441 41.1774 28.944 43.6047 26.9893 45.171C25.6818 46.129 24.4649 46.608 23.3387 46.608ZM21.6688 30.2969C21.6299 30.2969 21.5911 30.2839 21.5522 30.2581C20.5943 29.3389 20.1153 28.3939 20.1153 27.423C20.1153 26.9829 20.2189 26.6593 20.426 26.4521C20.5684 26.2968 20.7367 26.2191 20.9309 26.2191C21.3451 26.2191 21.7464 26.601 22.1348 27.3648C22.549 26.847 22.9439 26.5881 23.3193 26.5881C23.5911 26.5881 23.7918 26.7046 23.9212 26.9376C24.0248 27.1059 24.0766 27.3065 24.0766 27.5395C24.0766 28.0315 23.8565 28.5493 23.4164 29.093C23.0539 29.5331 22.4973 29.928 21.7464 30.2775L21.6688 30.2969ZM34.8333 35.6757C38.691 30.9506 41.5455 26.8405 43.3967 23.3453C45.675 19.0215 46.8142 15.4616 46.8142 12.6654C46.8142 11.8628 46.7107 11.1832 46.5035 10.6265C46.1281 9.64267 45.7333 9.11191 45.319 9.03424C44.9048 8.95657 44.6135 8.91773 44.4452 8.91773C43.9404 8.91773 43.4031 9.0666 42.8335 9.36434C41.3578 10.1411 40.1344 11.3644 39.1635 13.0343C37.7784 15.4939 36.7234 18.2707 35.9984 21.3646C35.144 25.0411 34.7168 28.6917 34.7168 32.3164C34.7168 33.4685 34.7557 34.5883 34.8333 35.6757ZM39.5907 48.6857C36.9758 48.6857 35.0146 47.0416 33.7071 43.7535C32.5679 40.5819 31.9983 36.8019 31.9983 32.4134C31.9983 28.4522 32.4579 24.5233 33.377 20.6268C34.1667 17.3128 35.3058 14.3289 36.7946 11.6751C37.4548 10.5229 38.1862 9.57147 38.9888 8.82064C39.9079 7.96625 40.7752 7.46139 41.5908 7.30604C42.4063 7.13775 43.0148 7.05361 43.4161 7.05361C45.6427 7.05361 47.1508 8.07629 47.9405 10.1216C48.2123 10.8336 48.3482 11.6945 48.3482 12.7042C48.3482 13.3774 48.2835 14.1153 48.1541 14.9179C47.7916 17.4034 46.5877 20.5556 44.5423 24.3744C42.5099 28.1803 39.3448 32.6594 35.0469 37.8116C35.1893 39.0155 35.4288 40.3101 35.7654 41.6952C36.1149 43.0804 36.6068 44.2908 37.2412 45.3264C37.8755 46.362 38.471 46.9187 39.0276 46.9963C39.5843 47.074 39.9208 47.1128 40.0374 47.1128C40.9953 47.1128 42.1345 46.5368 43.4549 45.3846C45.2673 43.8312 47.3061 41.0674 49.5716 37.0932C49.7399 36.8472 49.9599 36.7242 50.2318 36.7242C50.3612 36.7242 50.4907 36.7566 50.6201 36.8213C50.879 36.9637 51.0085 37.1838 51.0085 37.4815C51.0085 37.598 50.9761 37.721 50.9114 37.8505C48.5424 41.98 46.3935 44.8733 44.4646 46.5303C42.7947 47.9672 41.1701 48.6857 39.5907 48.6857ZM56.6778 50.8217C55.2926 50.8217 54.2117 50.4462 53.435 49.6954C52.7489 49.0352 52.4058 48.2067 52.4058 47.2099C52.4058 46.2779 52.7942 45.2552 53.5709 44.1419C54.8395 42.5367 56.1535 41.4881 57.5127 40.9962C58.872 40.5043 60.2377 40.2583 61.6099 40.2583H61.8235C61.7976 39.5334 61.6746 38.8473 61.4546 38.2C61.0792 37.1385 60.516 36.3165 59.7652 35.7339C59.0144 35.1514 58.2959 34.8601 57.6098 34.8601C56.2117 34.8601 54.6195 35.8957 52.833 37.967C52.7942 38.0188 52.7424 38.0641 52.6777 38.1029C52.5223 40.1094 52.4446 41.9541 52.4446 43.637C52.4446 44.0124 52.3087 44.3361 52.0369 44.6079C51.778 44.8798 51.4608 45.0157 51.0854 45.0157C50.71 45.0157 50.3928 44.8798 50.1339 44.6079C49.8621 44.3361 49.7261 44.0124 49.7261 43.637C49.7261 40.6984 49.9397 37.4103 50.3669 33.7727C50.8071 30.1351 51.4608 26.5622 52.3281 23.054C53.8686 16.7885 55.8622 12.3806 58.3089 9.83037C59.8882 8.25105 61.5581 7.46139 63.3187 7.46139C63.5647 7.46139 63.8106 7.4808 64.0566 7.51964C65.4288 7.70087 66.4061 8.26399 66.9887 9.209C67.5842 10.1411 67.8819 11.1249 67.8819 12.1605C67.8819 12.8855 67.7719 13.6945 67.5518 14.5878C67.0211 16.7626 65.6294 19.5717 63.377 23.0152C61.1374 26.4586 57.7522 30.5817 53.2214 35.3844C55.0078 33.831 56.8525 33.0542 58.7555 33.0542C61.241 33.0542 62.9951 34.4717 64.0177 37.3068C64.3543 38.2518 64.5291 39.255 64.542 40.3166C64.8657 40.3424 65.1828 40.3554 65.4935 40.3554C66.5939 40.3554 67.6489 40.213 68.6586 39.9282C69.9532 39.5528 71.1053 38.6013 72.115 37.0738C72.2704 36.8278 72.484 36.7048 72.7558 36.7048C72.8982 36.7048 73.0341 36.7436 73.1636 36.8213C73.4096 36.9767 73.5325 37.1903 73.5325 37.4621C73.5325 37.6045 73.4937 37.7404 73.416 37.8699C72.5875 39.1644 71.6878 40.103 70.7169 40.6855C69.759 41.2551 68.8204 41.5981 67.9013 41.7146C66.9952 41.8182 66.1537 41.87 65.377 41.87L64.4255 41.8506C64.3737 42.226 64.2896 42.6079 64.1731 42.9962C62.6455 48.2132 60.1471 50.8217 56.6778 50.8217ZM52.9107 35.6757L53.0078 35.5786C52.943 35.6174 52.9107 35.6498 52.9107 35.6757ZM53.2019 33.1902C61.9918 23.6754 66.3867 16.6008 66.3867 11.9663C66.3867 11.1896 66.2249 10.62 65.9013 10.2576C65.5129 9.80448 65.0081 9.57794 64.3867 9.57794C64.0889 9.57794 63.7653 9.62972 63.4158 9.73329C60.9303 10.4712 58.8785 12.7625 57.2603 16.6072C56.38 18.7044 55.6162 21.0669 54.969 23.6948C54.2052 26.8017 53.6162 29.9668 53.2019 33.1902ZM56.037 49.21C57.3574 49.21 58.7037 48.0643 60.0759 45.773C60.7491 44.6856 61.2798 43.3587 61.6682 41.7923C60.4384 41.7923 59.2409 42.0124 58.0759 42.4525C56.9108 42.8927 55.8169 43.7665 54.7942 45.0739C54.2117 45.8766 53.9204 46.5885 53.9204 47.2099C53.9204 47.7536 54.1211 48.2197 54.5224 48.608C54.9366 49.0093 55.4415 49.21 56.037 49.21Z" fill="#7D7676"/>
<path d="M32.8495 59.4879C38.9952 62.6012 45.8903 62.7366 52.3358 59.4879" stroke="#7D7676" stroke-width="1.19304" stroke-linecap="round"/>
<path d="M33.3629 53.125C32.3853 55.569 29.4526 55.569 28.475 53.125" stroke="#7D7676" stroke-width="1.19304" stroke-linecap="round"/>
<path d="M56.7102 53.125C55.7326 55.569 52.7999 55.569 51.8223 53.125" stroke="#7D7676" stroke-width="1.19304" stroke-linecap="round"/>
<path d="M32.1672 77.8391V70.1691C32.1672 69.7707 32.258 69.4719 32.4395 69.2727C32.621 69.0734 32.8556 68.9738 33.1434 68.9738C33.44 68.9738 33.6791 69.0734 33.8606 69.2727C34.0465 69.4674 34.1395 69.7663 34.1395 70.1691V77.8391C34.1395 78.2419 34.0465 78.543 33.8606 78.7422C33.6791 78.9414 33.44 79.041 33.1434 79.041C32.8601 79.041 32.6254 78.9414 32.4395 78.7422C32.258 78.5385 32.1672 78.2375 32.1672 77.8391ZM38.2832 70.1691V77.2547H42.2809C42.5996 77.2547 42.8431 77.3322 43.0114 77.4871C43.184 77.6421 43.2703 77.8368 43.2703 78.0715C43.2703 78.3105 43.1862 78.5053 43.018 78.6559C42.8498 78.802 42.6041 78.875 42.2809 78.875H37.5196C37.0901 78.875 36.7802 78.7798 36.5899 78.5895C36.4039 78.3991 36.311 78.0914 36.311 77.6664V70.1691C36.311 69.7707 36.3995 69.4719 36.5766 69.2727C36.7581 69.0734 36.9949 68.9738 37.2871 68.9738C37.5837 68.9738 37.8228 69.0734 38.0043 69.2727C38.1903 69.4674 38.2832 69.7663 38.2832 70.1691ZM48.7289 78.875H45.7539C45.3245 78.875 45.0168 78.7798 44.8309 78.5895C44.6494 78.3947 44.5586 78.087 44.5586 77.6664V70.3484C44.5586 69.919 44.6516 69.6113 44.8375 69.4254C45.0279 69.235 45.3334 69.1398 45.7539 69.1398H48.9082C49.3731 69.1398 49.7759 69.1686 50.1168 69.2262C50.4577 69.2837 50.7632 69.3944 51.0332 69.5582C51.2634 69.6954 51.4671 69.8703 51.6442 70.0828C51.8212 70.2909 51.9563 70.5233 52.0492 70.7801C52.1422 71.0324 52.1887 71.3003 52.1887 71.5836C52.1887 72.5576 51.7017 73.2703 50.7278 73.7219C52.0072 74.1292 52.6469 74.9216 52.6469 76.0992C52.6469 76.6438 52.5074 77.1352 52.2285 77.5734C51.9496 78.0073 51.5733 78.3283 51.0996 78.5363C50.803 78.6603 50.4621 78.7488 50.077 78.802C49.6918 78.8507 49.2425 78.875 48.7289 78.875ZM48.5828 74.552H46.5309V77.3941H48.6492C49.9818 77.3941 50.6481 76.9138 50.6481 75.9531C50.6481 75.4617 50.4754 75.1053 50.1301 74.884C49.7848 74.6626 49.269 74.552 48.5828 74.552ZM46.5309 70.6207V73.1375H48.3371C48.8285 73.1375 49.2071 73.091 49.4727 72.998C49.7427 72.9051 49.9486 72.728 50.0903 72.4668C50.2009 72.2809 50.2563 72.0728 50.2563 71.8426C50.2563 71.3512 50.0814 71.0258 49.7317 70.8664C49.3819 70.7026 48.8485 70.6207 48.1313 70.6207H46.5309Z" fill="#7D7676"/>
</svg>
