<svg width="60" height="60" viewBox="0 0 60 60" fill="none" xmlns="http://www.w3.org/2000/svg">
<path d="M13.4448 40.2596C13.288 40.2596 13.1369 40.2484 12.9913 40.226C11.9053 40.0693 11.0264 39.5095 10.3546 38.5466C9.61568 37.5054 9.24621 36.1618 9.24621 34.516C9.24621 32.859 9.61568 30.8045 10.3546 28.3525C10.5562 27.8039 10.9312 27.5296 11.4798 27.5296C11.5918 27.5296 11.7094 27.5464 11.8325 27.58C12.146 27.6808 12.3643 27.8487 12.4875 28.0838C12.6106 28.3077 12.6722 28.5149 12.6722 28.7052C12.6722 28.8172 12.6554 28.9291 12.6218 29.0411C11.9389 31.2803 11.5974 33.1109 11.5974 34.5328C11.5974 35.574 11.7709 36.4809 12.118 37.2535C12.4315 37.97 12.7786 38.3955 13.1593 38.5298C13.5399 38.653 13.8142 38.7146 13.9822 38.7146C14.5084 38.7146 15.1186 38.4626 15.8127 37.9588C17.3578 36.716 18.9813 34.7343 20.6831 32.0137C20.8286 31.8009 21.0134 31.6946 21.2373 31.6946C21.3604 31.6946 21.478 31.7282 21.59 31.7953C21.8027 31.9409 21.909 32.1312 21.909 32.3663C21.909 32.4895 21.8699 32.6071 21.7915 32.719C20.0225 35.5628 18.2927 37.6621 16.6021 39.0169C15.4713 39.8454 14.4188 40.2596 13.4448 40.2596ZM12.0005 26.1525C11.9669 26.1525 11.9333 26.1413 11.8997 26.1189C11.0712 25.324 10.6569 24.5067 10.6569 23.6669C10.6569 23.2863 10.7465 23.0064 10.9256 22.8272C11.0488 22.6929 11.1943 22.6257 11.3623 22.6257C11.7206 22.6257 12.0676 22.956 12.4035 23.6166C12.7618 23.1687 13.1033 22.9448 13.428 22.9448C13.6631 22.9448 13.8366 23.0456 13.9486 23.2471C14.0382 23.3926 14.0829 23.5662 14.0829 23.7677C14.0829 24.1932 13.8926 24.641 13.5119 25.1112C13.1984 25.4919 12.717 25.8334 12.0676 26.1357L12.0005 26.1525ZM23.3863 30.8045C26.7227 26.7179 29.1915 23.1631 30.7925 20.1402C32.763 16.4006 33.7483 13.3217 33.7483 10.9033C33.7483 10.2092 33.6587 9.62138 33.4796 9.13994C33.1549 8.28904 32.8134 7.82999 32.4551 7.76282C32.0969 7.69564 31.845 7.66205 31.6994 7.66205C31.2628 7.66205 30.7981 7.79081 30.3055 8.04832C29.0291 8.72009 27.9711 9.77812 27.1314 11.2224C25.9334 13.3497 25.0209 15.7513 24.3939 18.4271C23.655 21.6069 23.2855 24.7642 23.2855 27.8991C23.2855 28.8955 23.3191 29.864 23.3863 30.8045ZM27.5008 42.0566C25.2392 42.0566 23.543 40.6347 22.4122 37.7909C21.4269 35.0478 20.9343 31.7785 20.9343 27.9831C20.9343 24.557 21.3318 21.159 22.1267 17.789C22.8097 14.9228 23.7949 12.342 25.0825 10.0468C25.6535 9.05037 26.2861 8.22746 26.9802 7.57808C27.7752 6.83914 28.5253 6.40249 29.2307 6.26813C29.936 6.12258 30.4622 6.04981 30.8093 6.04981C32.735 6.04981 34.0394 6.9343 34.7224 8.70329C34.9575 9.31908 35.075 10.0636 35.075 10.9369C35.075 11.5191 35.0191 12.1573 34.9071 12.8515C34.5936 15.0011 33.5524 17.7274 31.7834 21.0302C30.0256 24.3219 27.2881 28.1958 23.571 32.6518C23.6942 33.6931 23.9013 34.8127 24.1924 36.0107C24.4947 37.2087 24.9201 38.2555 25.4687 39.1512C26.0174 40.0469 26.5324 40.5283 27.0138 40.5955C27.4953 40.6627 27.7864 40.6963 27.8871 40.6963C28.7156 40.6963 29.7009 40.1981 30.8429 39.2016C32.4104 37.8581 34.1738 35.4677 36.1331 32.0305C36.2786 31.8177 36.469 31.7114 36.7041 31.7114C36.816 31.7114 36.928 31.7394 37.04 31.7953C37.2639 31.9185 37.3758 32.1088 37.3758 32.3663C37.3758 32.4671 37.3479 32.5735 37.2919 32.6854C35.243 36.257 33.3844 38.7593 31.7162 40.1925C30.2719 41.4352 28.8668 42.0566 27.5008 42.0566ZM42.2791 43.904C41.0811 43.904 40.1462 43.5793 39.4745 42.9299C38.8811 42.3589 38.5844 41.6424 38.5844 40.7802C38.5844 39.9741 38.9202 39.0896 39.592 38.1268C40.6892 36.7384 41.8256 35.8316 43.0012 35.4061C44.1768 34.9806 45.358 34.7679 46.5448 34.7679H46.7296C46.7072 34.1409 46.6008 33.5475 46.4105 32.9877C46.0858 32.0696 45.5987 31.3587 44.9494 30.8549C44.3 30.351 43.6786 30.0991 43.0852 30.0991C41.876 30.0991 40.4989 30.9948 38.9538 32.7862C38.9202 32.831 38.8755 32.8702 38.8195 32.9038C38.6851 34.6392 38.6179 36.2346 38.6179 37.6901C38.6179 38.0148 38.5004 38.2947 38.2653 38.5298C38.0413 38.7649 37.767 38.8825 37.4424 38.8825C37.1177 38.8825 36.8434 38.7649 36.6194 38.5298C36.3843 38.2947 36.2668 38.0148 36.2668 37.6901C36.2668 35.1486 36.4515 32.3048 36.821 29.1587C37.2016 26.0125 37.767 22.9224 38.5172 19.8882C39.8495 14.4693 41.5737 10.657 43.6898 8.45138C45.0557 7.08545 46.5 6.40249 48.0227 6.40249C48.2354 6.40249 48.4482 6.41928 48.6609 6.45287C49.8477 6.60961 50.693 7.09665 51.1968 7.91397C51.7118 8.72009 51.9694 9.571 51.9694 10.4667C51.9694 11.0937 51.8742 11.7934 51.6839 12.566C51.2248 14.4469 50.0212 16.8765 48.0731 19.8547C46.1362 22.8328 43.2084 26.3988 39.2897 30.5526C40.8348 29.209 42.4302 28.5373 44.0761 28.5373C46.2257 28.5373 47.7428 29.7632 48.6273 32.2152C48.9184 33.0325 49.0696 33.9002 49.0807 34.8183C49.3607 34.8407 49.635 34.8519 49.9037 34.8519C50.8553 34.8519 51.7678 34.7287 52.6411 34.4824C53.7607 34.1577 54.7572 33.3348 55.6305 32.0137C55.7648 31.8009 55.9496 31.6946 56.1847 31.6946C56.3079 31.6946 56.4254 31.7282 56.5374 31.7953C56.7501 31.9297 56.8565 32.1144 56.8565 32.3496C56.8565 32.4727 56.8229 32.5903 56.7557 32.7022C56.0392 33.8218 55.261 34.6336 54.4213 35.1374C53.5928 35.63 52.7811 35.9267 51.9861 36.0275C51.2024 36.1171 50.4747 36.1618 49.8029 36.1618L48.98 36.145C48.9352 36.4697 48.8624 36.8 48.7617 37.1359C47.4405 41.648 45.2797 43.904 42.2791 43.904ZM39.021 30.8045L39.105 30.7205C39.049 30.7541 39.021 30.7821 39.021 30.8045ZM39.2729 28.6548C46.8751 20.4257 50.6762 14.307 50.6762 10.2987C50.6762 9.62698 50.5362 9.13435 50.2563 8.82085C49.9205 8.42899 49.4838 8.23306 48.9464 8.23306C48.6889 8.23306 48.409 8.27784 48.1067 8.36741C45.957 9.00559 44.1824 10.9873 42.7829 14.3126C42.0216 16.1263 41.361 18.1696 40.8012 20.4425C40.1406 23.1295 39.6312 25.867 39.2729 28.6548ZM41.7249 42.5101C42.8669 42.5101 44.0313 41.5192 45.2181 39.5375C45.8003 38.597 46.2593 37.4494 46.5952 36.0947C45.5316 36.0947 44.4959 36.285 43.4883 36.6657C42.4806 37.0463 41.5345 37.8021 40.6501 38.9329C40.1462 39.627 39.8943 40.2428 39.8943 40.7802C39.8943 41.2505 40.0679 41.6535 40.4149 41.9894C40.7732 42.3365 41.2099 42.5101 41.7249 42.5101Z" fill="black"/>
<path d="M21.7836 50.5031C27.0989 53.1958 33.0623 53.3129 38.6369 50.5031" stroke="black" stroke-width="1.03184" stroke-linecap="round"/>
<path d="M22.2274 45C21.3819 47.1137 18.8454 47.1137 17.9999 45" stroke="black" stroke-width="1.03184" stroke-linecap="round"/>
<path d="M42.4203 44.9999C41.5748 47.1137 39.0383 47.1137 38.1928 44.9999" stroke="black" stroke-width="1.03184" stroke-linecap="round"/>
</svg>
