<svg width="100" height="100" viewBox="0 0 100 100" fill="none" xmlns="http://www.w3.org/2000/svg">
<circle cx="50" cy="50" r="44.5" stroke="#201B1B" stroke-width="3"/>
<circle cx="50" cy="50" r="38.5" stroke="#201B1B" stroke-width="3"/>
<path d="M34.08 39.032C33.5893 39.032 33.344 38.8987 33.344 38.632V28.168C33.344 27.9013 33.5893 27.768 34.08 27.768H34.512C34.7147 27.768 34.8747 27.7947 34.992 27.848C35.1093 27.8907 35.2107 27.976 35.296 28.104L39.904 35.112C40.0213 35.272 40.1227 35.4267 40.208 35.576C40.2933 35.7253 40.3733 35.8853 40.448 36.056L40.512 36.04C40.5013 35.8587 40.4907 35.6933 40.48 35.544C40.48 35.384 40.48 35.1867 40.48 34.952V28.168C40.48 27.9013 40.7253 27.768 41.216 27.768H41.424C41.9147 27.768 42.16 27.9013 42.16 28.168V38.632C42.16 38.8987 41.9147 39.032 41.424 39.032H41.024C40.8533 39.032 40.7093 39.0107 40.592 38.968C40.4853 38.9253 40.3947 38.8507 40.32 38.744L35.6 31.592C35.4933 31.432 35.3973 31.2773 35.312 31.128C35.2267 30.968 35.1413 30.8027 35.056 30.632L34.992 30.648C35.0133 30.8293 35.024 31 35.024 31.16C35.024 31.3093 35.024 31.5013 35.024 31.736V38.632C35.024 38.8987 34.7787 39.032 34.288 39.032H34.08ZM49.34 39.112C47.7293 39.112 46.4973 38.6213 45.644 37.64C44.7907 36.6587 44.364 35.24 44.364 33.384C44.364 31.5067 44.7907 30.088 45.644 29.128C46.4973 28.168 47.7293 27.688 49.34 27.688C50.9613 27.688 52.1987 28.168 53.052 29.128C53.9053 30.088 54.332 31.5067 54.332 33.384C54.332 35.24 53.9053 36.6587 53.052 37.64C52.1987 38.6213 50.9613 39.112 49.34 39.112ZM49.34 37.64C50.396 37.64 51.196 37.2773 51.74 36.552C52.2947 35.816 52.572 34.76 52.572 33.384C52.572 31.9973 52.2947 30.952 51.74 30.248C51.196 29.5333 50.396 29.176 49.34 29.176C48.2947 29.176 47.4947 29.5333 46.94 30.248C46.396 30.952 46.124 31.9973 46.124 33.384C46.124 34.76 46.396 35.816 46.94 36.552C47.4947 37.2773 48.2947 37.64 49.34 37.64ZM57.2831 39.032C56.7925 39.032 56.5471 38.8987 56.5471 38.632V28.168C56.5471 27.9013 56.7925 27.768 57.2831 27.768H57.7151C57.9178 27.768 58.0778 27.7947 58.1951 27.848C58.3125 27.8907 58.4138 27.976 58.4991 28.104L63.1071 35.112C63.2245 35.272 63.3258 35.4267 63.4111 35.576C63.4965 35.7253 63.5765 35.8853 63.6511 36.056L63.7151 36.04C63.7045 35.8587 63.6938 35.6933 63.6831 35.544C63.6831 35.384 63.6831 35.1867 63.6831 34.952V28.168C63.6831 27.9013 63.9285 27.768 64.4191 27.768H64.6271C65.1178 27.768 65.3631 27.9013 65.3631 28.168V38.632C65.3631 38.8987 65.1178 39.032 64.6271 39.032H64.2271C64.0565 39.032 63.9125 39.0107 63.7951 38.968C63.6885 38.9253 63.5978 38.8507 63.5231 38.744L58.8031 31.592C58.6965 31.432 58.6005 31.2773 58.5151 31.128C58.4298 30.968 58.3445 30.8027 58.2591 30.632L58.1951 30.648C58.2165 30.8293 58.2271 31 58.2271 31.16C58.2271 31.3093 58.2271 31.5013 58.2271 31.736V38.632C58.2271 38.8987 57.9818 39.032 57.4911 39.032H57.2831Z" fill="#201B1B"/>
<path d="M29.724 69.208C26.812 69.208 24.654 68.454 23.25 66.946C21.8633 65.4207 21.17 63.0547 21.17 59.848C21.17 56.7453 21.898 54.4313 23.354 52.906C24.81 51.3633 26.9767 50.592 29.854 50.592C30.426 50.592 31.0327 50.6353 31.674 50.722C32.3153 50.8087 32.922 50.9387 33.494 51.112C34.066 51.268 34.5253 51.4587 34.872 51.684C35.236 51.892 35.418 52.1347 35.418 52.412C35.418 52.6547 35.3227 52.9753 35.132 53.374C34.9413 53.7553 34.716 54.102 34.456 54.414C34.196 54.7087 33.9533 54.856 33.728 54.856C33.624 54.856 33.416 54.7867 33.104 54.648C32.8093 54.5093 32.3847 54.3707 31.83 54.232C31.2927 54.0933 30.608 54.024 29.776 54.024C28.7533 54.024 27.904 54.2407 27.228 54.674C26.5693 55.1073 26.0753 55.7573 25.746 56.624C25.434 57.4907 25.278 58.574 25.278 59.874C25.278 60.8447 25.3647 61.7027 25.538 62.448C25.7287 63.1933 26.006 63.8173 26.37 64.32C26.7513 64.8053 27.2193 65.178 27.774 65.438C28.3287 65.6807 28.9787 65.802 29.724 65.802C30.2787 65.802 30.7813 65.7673 31.232 65.698C31.7 65.6287 32.2547 65.516 32.896 65.36L31.752 67.128V62.318H29.464C28.944 62.318 28.684 61.8847 28.684 61.018V60.186C28.684 59.3193 28.944 58.886 29.464 58.886H34.742C35.4353 58.886 35.782 59.2327 35.782 59.926V67.154C35.782 67.6047 35.5567 67.9687 35.106 68.246C34.6553 68.506 34.1007 68.7053 33.442 68.844C32.7833 68.9827 32.116 69.078 31.44 69.13C30.764 69.182 30.192 69.208 29.724 69.208ZM48.0508 64.658C47.6001 64.658 47.2534 64.4933 47.0108 64.164L43.8128 58.444C43.7088 58.2707 43.6048 58.106 43.5008 57.95C43.4141 57.7767 43.3274 57.6033 43.2408 57.43L43.1368 57.456C43.1368 57.664 43.1368 57.872 43.1368 58.08C43.1368 58.288 43.1368 58.5047 43.1368 58.73V68.22C43.1368 68.7747 42.6168 69.052 41.5768 69.052H40.8228C39.7828 69.052 39.2628 68.7747 39.2628 68.22V51.58C39.2628 51.0253 39.7828 50.748 40.8228 50.748H42.2008C42.5821 50.748 42.9114 50.8 43.1888 50.904C43.4834 51.008 43.7001 51.19 43.8388 51.45L48.1548 59.146C48.1894 59.2153 48.2328 59.2847 48.2848 59.354C48.3368 59.4233 48.3801 59.5013 48.4148 59.588C48.4494 59.5013 48.4841 59.4233 48.5188 59.354C48.5708 59.2847 48.6141 59.2153 48.6488 59.146L53.0428 51.45C53.1814 51.19 53.3894 51.008 53.6668 50.904C53.9614 50.8 54.2994 50.748 54.6808 50.748H56.0328C57.0728 50.748 57.5928 51.0253 57.5928 51.58V68.22C57.5928 68.7747 57.0728 69.052 56.0328 69.052H55.2788C54.2388 69.052 53.7188 68.7747 53.7188 68.22V58.73C53.7188 58.5047 53.7188 58.288 53.7188 58.08C53.7188 57.872 53.7188 57.664 53.7188 57.456L53.6148 57.43C53.5281 57.6033 53.4328 57.7767 53.3288 57.95C53.2421 58.106 53.1468 58.2707 53.0428 58.444L49.8448 64.164C49.6021 64.4933 49.2554 64.658 48.8048 64.658H48.0508ZM68.8969 69.208C66.2275 69.208 64.1649 68.4107 62.7089 66.816C61.2702 65.204 60.5509 62.8987 60.5509 59.9C60.5509 56.9013 61.2702 54.6047 62.7089 53.01C64.1649 51.398 66.2275 50.592 68.8969 50.592C71.5835 50.592 73.6375 51.398 75.0589 53.01C76.4975 54.6047 77.2169 56.9013 77.2169 59.9C77.2169 62.8987 76.4975 65.204 75.0589 66.816C73.6375 68.4107 71.5835 69.208 68.8969 69.208ZM68.8969 65.802C70.2835 65.802 71.3322 65.2993 72.0429 64.294C72.7535 63.2713 73.1089 61.8067 73.1089 59.9C73.1089 57.9933 72.7535 56.5373 72.0429 55.532C71.3322 54.5267 70.2835 54.024 68.8969 54.024C67.5102 54.024 66.4529 54.5267 65.7249 55.532C65.0142 56.5373 64.6589 57.9933 64.6589 59.9C64.6589 61.8067 65.0142 63.2713 65.7249 64.294C66.4529 65.2993 67.5102 65.802 68.8969 65.802Z" fill="#201B1B"/>
</svg>
