<svg width="100" height="100" viewBox="0 0 100 100" fill="none" xmlns="http://www.w3.org/2000/svg">
<path d="M78.5508 23.4338C76.2954 17.7043 72.3666 12.7862 67.2758 9.32C62.185 5.85379 56.1681 4 50.0085 4C43.8489 4 37.832 5.85379 32.7412 9.32C27.6504 12.7862 23.7216 17.7043 21.4663 23.4338C16.282 25.6591 11.8643 29.355 8.75986 34.0643C5.65543 38.7735 4.00058 44.2894 4.00011 49.9291C3.9575 65.2591 16.8825 78.5707 32.2229 78.9582C37.8977 79.0942 43.4881 77.5665 48.3045 74.5636V94.2967C48.3045 94.7484 48.484 95.1817 48.8036 95.5011C49.1232 95.8205 49.5566 96 50.0085 96C50.4604 96 50.8939 95.8205 51.2134 95.5011C51.533 95.1817 51.7125 94.7484 51.7125 94.2967V74.5678C56.3128 77.4381 61.6258 78.962 67.0487 78.9667H67.7814C83.1175 78.5792 96.0425 65.2847 95.9999 49.9376C96.002 44.2985 94.3502 38.7824 91.2489 34.0718C88.1476 29.3612 83.7329 25.6627 78.5508 23.4338ZM67.709 75.56C61.954 75.7012 56.3191 73.9012 51.7125 70.45V51.0746L71.2192 41.3273C71.4195 41.2272 71.5981 41.0887 71.7448 40.9196C71.8915 40.7505 72.0035 40.5542 72.0743 40.3418C72.1451 40.1295 72.1734 39.9053 72.1575 39.682C72.1416 39.4587 72.0819 39.2408 71.9818 39.0406C71.8817 38.8404 71.743 38.6619 71.5739 38.5152C71.4047 38.3686 71.2083 38.2566 70.9959 38.1859C70.7835 38.1151 70.5592 38.0868 70.3358 38.1027C70.1125 38.1186 69.8944 38.1782 69.6942 38.2783L51.7125 47.2549V32.9767C51.7125 32.525 51.533 32.0917 51.2134 31.7723C50.8939 31.4528 50.4604 31.2734 50.0085 31.2734C49.5566 31.2734 49.1232 31.4528 48.8036 31.7723C48.484 32.0917 48.3045 32.525 48.3045 32.9767V57.4749L30.3229 48.4856C29.9184 48.2834 29.4501 48.2501 29.0211 48.3931C28.5921 48.536 28.2375 48.8435 28.0352 49.2478C27.833 49.6521 27.7997 50.1202 27.9427 50.549C28.0857 50.9779 28.3933 51.3324 28.7978 51.5345L48.3045 61.2818V70.45C43.7003 73.9057 38.0638 75.7062 32.3081 75.56C18.7739 75.2194 7.3698 63.4877 7.40814 49.9462C7.40935 44.8566 8.937 39.8844 11.7938 35.6715C14.6506 31.4586 18.7054 28.1985 23.4344 26.3124C23.6562 26.2226 23.8565 26.087 24.0224 25.9146C24.1883 25.7422 24.316 25.5368 24.3972 25.3117C26.3142 20.0619 29.7995 15.5282 34.3807 12.3248C38.962 9.12144 44.4177 7.40334 50.0085 7.40334C55.5994 7.40334 61.055 9.12144 65.6363 12.3248C70.2175 15.5282 73.7028 20.0619 75.6199 25.3117C75.7021 25.5352 75.8302 25.7389 75.996 25.9098C76.1619 26.0807 76.3617 26.215 76.5826 26.3039C81.311 28.191 85.3651 31.4513 88.2218 35.6639C91.0784 39.8766 92.6065 44.8484 92.6089 49.9376C92.6472 63.4791 81.2431 75.2108 67.709 75.56Z" fill="#201B1B"/>
</svg>
