<svg width="50" height="50" viewBox="0 0 50 50" fill="none" xmlns="http://www.w3.org/2000/svg">
<circle cx="25" cy="25" r="24.5" fill="white" stroke="#D9DFE7"/>
<path d="M36.44 25.7604C36.44 24.9479 36.3642 24.1666 36.2233 23.4166H25V27.8489H31.4133C31.1371 29.2812 30.2975 30.4948 29.0354 31.3073V34.1823H32.8867C35.14 32.1875 36.44 29.25 36.44 25.7604Z" fill="#4285F4"/>
<path d="M25 36.9584C28.2175 36.9584 30.915 35.9323 32.8867 34.1823L29.0354 31.3073C27.9683 31.9948 26.6033 32.4011 25 32.4011C21.8962 32.4011 19.2692 30.3855 18.3321 27.6771H14.3508V30.6459C16.3117 34.3907 20.3417 36.9584 25 36.9584Z" fill="#34A853"/>
<path d="M18.3321 27.677C18.0938 26.9895 17.9584 26.2552 17.9584 25.5C17.9584 24.7448 18.0938 24.0104 18.3321 23.3229V20.3541H14.3509C13.5167 21.9509 13.0826 23.7131 13.0834 25.5C13.0834 27.3489 13.5438 29.0989 14.3509 30.6458L18.3321 27.677Z" fill="#FBBC05"/>
<path d="M25 18.5989C26.7496 18.5989 28.3204 19.177 29.5554 20.3125L32.9733 17.026C30.9096 15.177 28.2121 14.0416 25 14.0416C20.3417 14.0416 16.3117 16.6093 14.3508 20.3541L18.3321 23.3229C19.2692 20.6145 21.8962 18.5989 25 18.5989Z" fill="#EA4335"/>
</svg>
