<svg width="100" height="100" viewBox="0 0 100 100" fill="none" xmlns="http://www.w3.org/2000/svg">
<path d="M14 58.8H24.4154C25.694 58.8 26.9551 59.0905 28.0989 59.6537L36.9791 64.0009C38.1229 64.5597 39.384 64.8501 40.6669 64.8501H45.1984C49.582 64.8501 53.1393 68.3305 53.1393 72.6249C53.1393 72.8009 53.0219 72.9505 52.8523 72.9989L41.802 76.0922C39.8191 76.6464 37.7048 76.4525 35.8528 75.5465L26.3593 70.9001" stroke="#201B1B" stroke-width="3" stroke-linecap="round" stroke-linejoin="round"/>
<path d="M53.1393 69.8004L73.1134 63.592C74.8523 63.0521 76.7153 63.0818 78.4366 63.6768C80.1578 64.2718 81.6493 65.4016 82.6982 66.9052C84.3029 69.1492 83.6506 72.37 81.311 73.734L48.6296 92.8169C47.6077 93.4152 46.4761 93.7966 45.3038 93.9381C44.1315 94.0795 42.943 93.978 41.8107 93.6397L14 85.2885M53.1393 19.2001H61.837M61.837 50.0003H53.1393C44.9375 50.0003 40.8409 50.0003 38.2925 47.4219C35.7441 44.8434 35.7441 40.6986 35.7441 32.4002V23.6001C35.7441 15.3017 35.7441 11.1568 38.2925 8.57842C40.8409 6 44.9375 6 53.1393 6H61.837C70.0388 6 74.1354 6 76.6838 8.57842C79.2322 11.1568 79.2322 15.3017 79.2322 23.6001V32.4002C79.2322 40.6986 79.2322 44.8434 76.6838 47.4219C74.1354 50.0003 70.0388 50.0003 61.837 50.0003Z" stroke="#201B1B" stroke-width="3" stroke-linecap="round" stroke-linejoin="round"/>
</svg>
