<svg width="16" height="16" viewBox="0 0 16 16" fill="none" xmlns="http://www.w3.org/2000/svg">
<path d="M5.00036 6.87066C4.52569 8.92066 7.16469 9.44233 6.54169 10.8867C5.91836 12.3307 4.52336 12.042 4.67902 13.486C4.83502 14.9303 6.68102 14.9507 8.36169 14.0807C11.7227 12.3403 12.424 8.53899 10.903 6.87066C9.03369 4.82066 5.47502 4.82066 5.00036 6.87066Z" fill="#201B1B" stroke="#201B1B" stroke-width="1.33333"/>
<path d="M10.8687 5.27772C11.1507 5.51439 11.6672 5.36328 12.0222 4.9402C12.3772 4.51713 12.4363 3.9823 12.1543 3.74563C11.8722 3.50897 11.3558 3.66008 11.0008 4.08315C10.6458 4.50623 10.5866 5.04105 10.8687 5.27772Z" fill="#201B1B"/>
<path d="M9.37127 4.4408C9.70497 4.5964 10.1647 4.31677 10.3981 3.81623C10.6315 3.31569 10.5502 2.78378 10.2165 2.62818C9.88282 2.47258 9.42309 2.7522 9.18969 3.25274C8.95628 3.75328 9.03758 4.28519 9.37127 4.4408Z" fill="#201B1B"/>
<path d="M7.68931 4.19557C8.05548 4.23406 8.39912 3.81999 8.45685 3.27073C8.51458 2.72147 8.26454 2.24501 7.89837 2.20653C7.53219 2.16804 7.18855 2.5821 7.13082 3.13136C7.07309 3.68062 7.32314 4.15708 7.68931 4.19557Z" fill="#201B1B"/>
<path d="M5.12225 3.91959C5.64123 3.7307 5.85778 3.01662 5.60592 2.32465C5.35406 1.63268 4.72918 1.22486 4.2102 1.41375C3.69122 1.60264 3.47468 2.31672 3.72653 3.00869C3.97839 3.70066 4.60328 4.10849 5.12225 3.91959Z" fill="#201B1B" stroke="#201B1B" stroke-width="1.33333"/>
<path d="M12.0791 6.48814C12.3157 6.77019 12.8505 6.71105 13.2736 6.35604C13.6967 6.00104 13.8478 5.48461 13.6111 5.20256C13.3745 4.92051 12.8396 4.97965 12.4166 5.33465C11.9935 5.68965 11.8424 6.20609 12.0791 6.48814Z" fill="#201B1B"/>
</svg>
